<mxfile host="app.diagrams.net" modified="2022-10-28T11:02:56.002Z" agent="5.0 (Windows NT 10.0; Win64; x64) AppleWebKit/537.36 (KHTML, like Gecko) Chrome/101.0.0.0 Safari/537.36" etag="oMPeflzGpumzuoU6QYNi" version="20.5.1" type="github">
  <diagram id="prtHgNgQTEPvFCAcTncT" name="Page-1">
    <mxGraphModel dx="1185" dy="662" grid="1" gridSize="10" guides="1" tooltips="1" connect="1" arrows="1" fold="1" page="1" pageScale="1" pageWidth="827" pageHeight="1169" math="0" shadow="0">
      <root>
        <mxCell id="0" />
        <mxCell id="1" parent="0" />
        <mxCell id="dNxyNK7c78bLwvsdeMH5-19" value="第三方应用对接门户" style="swimlane;html=1;childLayout=stackLayout;resizeParent=1;resizeParentMax=0;horizontal=0;startSize=20;horizontalStack=0;" parent="1" vertex="1">
          <mxGeometry x="120" y="120" width="450" height="360" as="geometry" />
        </mxCell>
        <mxCell id="dNxyNK7c78bLwvsdeMH5-20" value="门户" style="swimlane;html=1;startSize=20;horizontal=0;" parent="dNxyNK7c78bLwvsdeMH5-19" vertex="1">
          <mxGeometry x="20" width="430" height="120" as="geometry" />
        </mxCell>
        <mxCell id="lueXbY27OIYnLRemOsk2-9" value="&lt;font style=&quot;font-size: 6px;&quot;&gt;登录&lt;/font&gt;" style="whiteSpace=wrap;html=1;verticalAlign=top;" vertex="1" parent="dNxyNK7c78bLwvsdeMH5-20">
          <mxGeometry x="40" y="40" width="60" height="25" as="geometry" />
        </mxCell>
        <mxCell id="lueXbY27OIYnLRemOsk2-13" value="&lt;font style=&quot;font-size: 8px;&quot;&gt;验证&lt;/font&gt;" style="rhombus;whiteSpace=wrap;html=1;verticalAlign=top;" vertex="1" parent="dNxyNK7c78bLwvsdeMH5-20">
          <mxGeometry x="140" y="33.75" width="50" height="37.5" as="geometry" />
        </mxCell>
        <mxCell id="lueXbY27OIYnLRemOsk2-14" value="" style="edgeStyle=orthogonalEdgeStyle;rounded=0;orthogonalLoop=1;jettySize=auto;html=1;" edge="1" parent="dNxyNK7c78bLwvsdeMH5-20" source="lueXbY27OIYnLRemOsk2-9" target="lueXbY27OIYnLRemOsk2-13">
          <mxGeometry relative="1" as="geometry" />
        </mxCell>
        <mxCell id="dNxyNK7c78bLwvsdeMH5-21" value="用户" style="swimlane;html=1;startSize=20;horizontal=0;" parent="dNxyNK7c78bLwvsdeMH5-19" vertex="1">
          <mxGeometry x="20" y="120" width="430" height="120" as="geometry" />
        </mxCell>
        <mxCell id="lueXbY27OIYnLRemOsk2-5" value="" style="edgeStyle=orthogonalEdgeStyle;rounded=0;orthogonalLoop=1;jettySize=auto;html=1;" edge="1" parent="dNxyNK7c78bLwvsdeMH5-21" source="lueXbY27OIYnLRemOsk2-1" target="lueXbY27OIYnLRemOsk2-4">
          <mxGeometry relative="1" as="geometry" />
        </mxCell>
        <mxCell id="lueXbY27OIYnLRemOsk2-1" value="" style="shape=umlActor;verticalLabelPosition=bottom;verticalAlign=top;html=1;outlineConnect=0;" vertex="1" parent="dNxyNK7c78bLwvsdeMH5-21">
          <mxGeometry x="30" y="30" width="20" height="30" as="geometry" />
        </mxCell>
        <mxCell id="lueXbY27OIYnLRemOsk2-4" value="访问" style="whiteSpace=wrap;html=1;verticalAlign=top;" vertex="1" parent="dNxyNK7c78bLwvsdeMH5-21">
          <mxGeometry x="80" y="32.5" width="60" height="25" as="geometry" />
        </mxCell>
        <mxCell id="dNxyNK7c78bLwvsdeMH5-22" value="第三方应用" style="swimlane;html=1;startSize=20;horizontal=0;" parent="dNxyNK7c78bLwvsdeMH5-19" vertex="1">
          <mxGeometry x="20" y="240" width="430" height="120" as="geometry" />
        </mxCell>
        <mxCell id="lueXbY27OIYnLRemOsk2-10" value="" style="edgeStyle=orthogonalEdgeStyle;rounded=0;orthogonalLoop=1;jettySize=auto;html=1;" edge="1" parent="dNxyNK7c78bLwvsdeMH5-19" source="lueXbY27OIYnLRemOsk2-4" target="lueXbY27OIYnLRemOsk2-9">
          <mxGeometry relative="1" as="geometry" />
        </mxCell>
        <mxCell id="lueXbY27OIYnLRemOsk2-15" value="第三方应用对接门户" style="swimlane;html=1;childLayout=stackLayout;resizeParent=1;resizeParentMax=0;horizontal=0;startSize=20;horizontalStack=0;" vertex="1" parent="1">
          <mxGeometry x="120" y="120" width="450" height="480" as="geometry" />
        </mxCell>
        <mxCell id="lueXbY27OIYnLRemOsk2-16" value="门户" style="swimlane;html=1;startSize=20;horizontal=0;" vertex="1" parent="lueXbY27OIYnLRemOsk2-15">
          <mxGeometry x="20" width="430" height="120" as="geometry" />
        </mxCell>
        <mxCell id="lueXbY27OIYnLRemOsk2-17" value="&lt;font style=&quot;font-size: 10px&quot;&gt;登录&lt;/font&gt;" style="whiteSpace=wrap;html=1;verticalAlign=top;fillColor=#9AC7BF;" vertex="1" parent="lueXbY27OIYnLRemOsk2-16">
          <mxGeometry x="40" y="40" width="60" height="25" as="geometry" />
        </mxCell>
        <mxCell id="lueXbY27OIYnLRemOsk2-18" value="&lt;font style=&quot;font-size: 10px&quot;&gt;验证?&lt;/font&gt;" style="rhombus;whiteSpace=wrap;html=1;verticalAlign=top;" vertex="1" parent="lueXbY27OIYnLRemOsk2-16">
          <mxGeometry x="140" y="33.75" width="50" height="37.5" as="geometry" />
        </mxCell>
        <mxCell id="lueXbY27OIYnLRemOsk2-19" value="" style="edgeStyle=orthogonalEdgeStyle;rounded=0;orthogonalLoop=1;jettySize=auto;html=1;" edge="1" parent="lueXbY27OIYnLRemOsk2-16" source="lueXbY27OIYnLRemOsk2-17" target="lueXbY27OIYnLRemOsk2-18">
          <mxGeometry relative="1" as="geometry" />
        </mxCell>
        <mxCell id="lueXbY27OIYnLRemOsk2-20" value="&lt;font style=&quot;font-size: 10px&quot;&gt;应用中心&lt;/font&gt;" style="whiteSpace=wrap;html=1;verticalAlign=top;" vertex="1" parent="lueXbY27OIYnLRemOsk2-16">
          <mxGeometry x="229" y="41.88" width="45" height="21.25" as="geometry" />
        </mxCell>
        <mxCell id="lueXbY27OIYnLRemOsk2-21" value="" style="edgeStyle=orthogonalEdgeStyle;rounded=0;orthogonalLoop=1;jettySize=auto;html=1;" edge="1" parent="lueXbY27OIYnLRemOsk2-16" source="lueXbY27OIYnLRemOsk2-18" target="lueXbY27OIYnLRemOsk2-20">
          <mxGeometry relative="1" as="geometry" />
        </mxCell>
        <mxCell id="lueXbY27OIYnLRemOsk2-22" value="&lt;font style=&quot;font-size: 10px&quot;&gt;第三方应用&lt;/font&gt;" style="whiteSpace=wrap;html=1;verticalAlign=top;" vertex="1" parent="lueXbY27OIYnLRemOsk2-16">
          <mxGeometry x="310" y="40.63" width="60" height="24.37" as="geometry" />
        </mxCell>
        <mxCell id="lueXbY27OIYnLRemOsk2-23" value="" style="edgeStyle=orthogonalEdgeStyle;rounded=0;orthogonalLoop=1;jettySize=auto;html=1;" edge="1" parent="lueXbY27OIYnLRemOsk2-16" source="lueXbY27OIYnLRemOsk2-20" target="lueXbY27OIYnLRemOsk2-22">
          <mxGeometry relative="1" as="geometry" />
        </mxCell>
        <mxCell id="lueXbY27OIYnLRemOsk2-24" value="注销" style="whiteSpace=wrap;html=1;verticalAlign=top;fillColor=#1C7EFF;" vertex="1" parent="lueXbY27OIYnLRemOsk2-16">
          <mxGeometry x="249" y="80" width="61" height="22.5" as="geometry" />
        </mxCell>
        <mxCell id="lueXbY27OIYnLRemOsk2-25" value="" style="edgeStyle=orthogonalEdgeStyle;rounded=0;orthogonalLoop=1;jettySize=auto;html=1;" edge="1" parent="lueXbY27OIYnLRemOsk2-15" source="lueXbY27OIYnLRemOsk2-30" target="lueXbY27OIYnLRemOsk2-17">
          <mxGeometry relative="1" as="geometry" />
        </mxCell>
        <mxCell id="lueXbY27OIYnLRemOsk2-26" value="" style="edgeStyle=orthogonalEdgeStyle;rounded=0;orthogonalLoop=1;jettySize=auto;html=1;" edge="1" parent="lueXbY27OIYnLRemOsk2-15" source="lueXbY27OIYnLRemOsk2-30" target="lueXbY27OIYnLRemOsk2-36">
          <mxGeometry relative="1" as="geometry" />
        </mxCell>
        <mxCell id="lueXbY27OIYnLRemOsk2-27" value="用户" style="swimlane;html=1;startSize=20;horizontal=0;" vertex="1" parent="lueXbY27OIYnLRemOsk2-15">
          <mxGeometry x="20" y="120" width="430" height="120" as="geometry" />
        </mxCell>
        <mxCell id="lueXbY27OIYnLRemOsk2-28" value="" style="edgeStyle=orthogonalEdgeStyle;rounded=0;orthogonalLoop=1;jettySize=auto;html=1;" edge="1" parent="lueXbY27OIYnLRemOsk2-27" source="lueXbY27OIYnLRemOsk2-29" target="lueXbY27OIYnLRemOsk2-30">
          <mxGeometry relative="1" as="geometry" />
        </mxCell>
        <mxCell id="lueXbY27OIYnLRemOsk2-29" value="" style="shape=umlActor;verticalLabelPosition=bottom;verticalAlign=top;html=1;outlineConnect=0;" vertex="1" parent="lueXbY27OIYnLRemOsk2-27">
          <mxGeometry x="30" y="30" width="20" height="30" as="geometry" />
        </mxCell>
        <mxCell id="lueXbY27OIYnLRemOsk2-30" value="&lt;font style=&quot;font-size: 10px&quot;&gt;访问&lt;/font&gt;" style="whiteSpace=wrap;html=1;verticalAlign=top;" vertex="1" parent="lueXbY27OIYnLRemOsk2-27">
          <mxGeometry x="80" y="32.5" width="60" height="25" as="geometry" />
        </mxCell>
        <mxCell id="lueXbY27OIYnLRemOsk2-31" value="" style="shape=umlActor;verticalLabelPosition=bottom;verticalAlign=top;html=1;outlineConnect=0;" vertex="1" parent="lueXbY27OIYnLRemOsk2-27">
          <mxGeometry x="190" y="32.5" width="20" height="30" as="geometry" />
        </mxCell>
        <mxCell id="lueXbY27OIYnLRemOsk2-32" value="退出登录" style="whiteSpace=wrap;html=1;verticalAlign=top;" vertex="1" parent="lueXbY27OIYnLRemOsk2-27">
          <mxGeometry x="249" y="36.25" width="61" height="22.5" as="geometry" />
        </mxCell>
        <mxCell id="lueXbY27OIYnLRemOsk2-33" value="" style="edgeStyle=orthogonalEdgeStyle;rounded=0;orthogonalLoop=1;jettySize=auto;html=1;" edge="1" parent="lueXbY27OIYnLRemOsk2-27" source="lueXbY27OIYnLRemOsk2-31" target="lueXbY27OIYnLRemOsk2-32">
          <mxGeometry relative="1" as="geometry" />
        </mxCell>
        <mxCell id="lueXbY27OIYnLRemOsk2-34" value="第三方应用" style="swimlane;html=1;startSize=20;horizontal=0;" vertex="1" parent="lueXbY27OIYnLRemOsk2-15">
          <mxGeometry x="20" y="240" width="430" height="240" as="geometry" />
        </mxCell>
        <mxCell id="lueXbY27OIYnLRemOsk2-35" value="" style="edgeStyle=orthogonalEdgeStyle;rounded=0;orthogonalLoop=1;jettySize=auto;html=1;" edge="1" parent="lueXbY27OIYnLRemOsk2-34" source="lueXbY27OIYnLRemOsk2-36" target="lueXbY27OIYnLRemOsk2-39">
          <mxGeometry relative="1" as="geometry" />
        </mxCell>
        <mxCell id="lueXbY27OIYnLRemOsk2-36" value="&lt;font style=&quot;font-size: 10px&quot;&gt;登录&lt;/font&gt;" style="whiteSpace=wrap;html=1;verticalAlign=top;fillColor=#9AC7BF;" vertex="1" parent="lueXbY27OIYnLRemOsk2-34">
          <mxGeometry x="80" y="17.5" width="60" height="25" as="geometry" />
        </mxCell>
        <mxCell id="lueXbY27OIYnLRemOsk2-37" style="edgeStyle=orthogonalEdgeStyle;rounded=0;orthogonalLoop=1;jettySize=auto;html=1;exitX=0;exitY=0.5;exitDx=0;exitDy=0;entryX=0;entryY=0.5;entryDx=0;entryDy=0;" edge="1" parent="lueXbY27OIYnLRemOsk2-34" source="lueXbY27OIYnLRemOsk2-39" target="lueXbY27OIYnLRemOsk2-36">
          <mxGeometry relative="1" as="geometry" />
        </mxCell>
        <mxCell id="lueXbY27OIYnLRemOsk2-38" style="edgeStyle=orthogonalEdgeStyle;rounded=0;orthogonalLoop=1;jettySize=auto;html=1;exitX=0.5;exitY=1;exitDx=0;exitDy=0;entryX=0.005;entryY=0.649;entryDx=0;entryDy=0;entryPerimeter=0;" edge="1" parent="lueXbY27OIYnLRemOsk2-34" source="lueXbY27OIYnLRemOsk2-39" target="lueXbY27OIYnLRemOsk2-43">
          <mxGeometry relative="1" as="geometry" />
        </mxCell>
        <mxCell id="lueXbY27OIYnLRemOsk2-39" value="验证？" style="rhombus;whiteSpace=wrap;html=1;verticalAlign=top;" vertex="1" parent="lueXbY27OIYnLRemOsk2-34">
          <mxGeometry x="55" y="80" width="110" height="30" as="geometry" />
        </mxCell>
        <mxCell id="lueXbY27OIYnLRemOsk2-40" value="&lt;font style=&quot;font-size: 10px&quot;&gt;解析用户信息&lt;/font&gt;" style="whiteSpace=wrap;html=1;verticalAlign=top;" vertex="1" parent="lueXbY27OIYnLRemOsk2-34">
          <mxGeometry x="301" y="40" width="80" height="25" as="geometry" />
        </mxCell>
        <mxCell id="lueXbY27OIYnLRemOsk2-41" value="&lt;font style=&quot;font-size: 10px&quot;&gt;认证通过?&lt;/font&gt;" style="rhombus;whiteSpace=wrap;html=1;verticalAlign=top;" vertex="1" parent="lueXbY27OIYnLRemOsk2-34">
          <mxGeometry x="301" y="90" width="79" height="32.5" as="geometry" />
        </mxCell>
        <mxCell id="lueXbY27OIYnLRemOsk2-42" value="" style="edgeStyle=orthogonalEdgeStyle;rounded=0;orthogonalLoop=1;jettySize=auto;html=1;" edge="1" parent="lueXbY27OIYnLRemOsk2-34" source="lueXbY27OIYnLRemOsk2-40" target="lueXbY27OIYnLRemOsk2-41">
          <mxGeometry relative="1" as="geometry" />
        </mxCell>
        <mxCell id="lueXbY27OIYnLRemOsk2-43" value="进入应用" style="whiteSpace=wrap;html=1;verticalAlign=top;" vertex="1" parent="lueXbY27OIYnLRemOsk2-34">
          <mxGeometry x="291.25" y="170" width="99.5" height="31.25" as="geometry" />
        </mxCell>
        <mxCell id="lueXbY27OIYnLRemOsk2-44" value="" style="edgeStyle=orthogonalEdgeStyle;rounded=0;orthogonalLoop=1;jettySize=auto;html=1;" edge="1" parent="lueXbY27OIYnLRemOsk2-34" source="lueXbY27OIYnLRemOsk2-41" target="lueXbY27OIYnLRemOsk2-43">
          <mxGeometry relative="1" as="geometry" />
        </mxCell>
        <mxCell id="lueXbY27OIYnLRemOsk2-45" value="注销" style="whiteSpace=wrap;html=1;verticalAlign=top;fillColor=#1C7EFF;" vertex="1" parent="lueXbY27OIYnLRemOsk2-34">
          <mxGeometry x="249" y="10" width="61" height="22.5" as="geometry" />
        </mxCell>
        <mxCell id="lueXbY27OIYnLRemOsk2-46" value="" style="edgeStyle=orthogonalEdgeStyle;rounded=0;orthogonalLoop=1;jettySize=auto;html=1;" edge="1" parent="lueXbY27OIYnLRemOsk2-15" source="lueXbY27OIYnLRemOsk2-32" target="lueXbY27OIYnLRemOsk2-45">
          <mxGeometry relative="1" as="geometry" />
        </mxCell>
        <mxCell id="lueXbY27OIYnLRemOsk2-47" value="" style="edgeStyle=orthogonalEdgeStyle;rounded=0;orthogonalLoop=1;jettySize=auto;html=1;" edge="1" parent="lueXbY27OIYnLRemOsk2-15" source="lueXbY27OIYnLRemOsk2-32" target="lueXbY27OIYnLRemOsk2-24">
          <mxGeometry relative="1" as="geometry" />
        </mxCell>
        <mxCell id="lueXbY27OIYnLRemOsk2-48" style="edgeStyle=orthogonalEdgeStyle;rounded=0;orthogonalLoop=1;jettySize=auto;html=1;" edge="1" parent="1" source="lueXbY27OIYnLRemOsk2-18">
          <mxGeometry relative="1" as="geometry">
            <mxPoint x="210" y="209.9999999999999" as="targetPoint" />
            <Array as="points">
              <mxPoint x="305" y="210" />
            </Array>
          </mxGeometry>
        </mxCell>
        <mxCell id="lueXbY27OIYnLRemOsk2-49" value="N" style="text;html=1;align=center;verticalAlign=middle;resizable=0;points=[];autosize=1;strokeColor=none;" vertex="1" parent="1">
          <mxGeometry x="280" y="190" width="20" height="20" as="geometry" />
        </mxCell>
        <mxCell id="lueXbY27OIYnLRemOsk2-50" value="Y" style="text;html=1;align=center;verticalAlign=middle;resizable=0;points=[];autosize=1;strokeColor=none;" vertex="1" parent="1">
          <mxGeometry x="342" y="152" width="20" height="20" as="geometry" />
        </mxCell>
        <mxCell id="lueXbY27OIYnLRemOsk2-51" style="edgeStyle=orthogonalEdgeStyle;rounded=0;orthogonalLoop=1;jettySize=auto;html=1;" edge="1" parent="1" source="lueXbY27OIYnLRemOsk2-22">
          <mxGeometry relative="1" as="geometry">
            <mxPoint x="480" y="399.9999999999999" as="targetPoint" />
          </mxGeometry>
        </mxCell>
        <mxCell id="lueXbY27OIYnLRemOsk2-52" value="&lt;font style=&quot;font-size: 10px&quot;&gt;跳转&lt;/font&gt;" style="text;html=1;align=center;verticalAlign=middle;resizable=0;points=[];autosize=1;strokeColor=none;" vertex="1" parent="1">
          <mxGeometry x="476" y="200" width="40" height="20" as="geometry" />
        </mxCell>
        <mxCell id="lueXbY27OIYnLRemOsk2-53" value="key" style="text;html=1;align=center;verticalAlign=middle;resizable=0;points=[];autosize=1;strokeColor=none;" vertex="1" parent="1">
          <mxGeometry x="479" y="366" width="30" height="20" as="geometry" />
        </mxCell>
        <mxCell id="lueXbY27OIYnLRemOsk2-54" style="edgeStyle=orthogonalEdgeStyle;rounded=0;orthogonalLoop=1;jettySize=auto;html=1;exitX=0;exitY=0.5;exitDx=0;exitDy=0;entryX=0.671;entryY=1.029;entryDx=0;entryDy=0;entryPerimeter=0;" edge="1" parent="1" source="lueXbY27OIYnLRemOsk2-41" target="lueXbY27OIYnLRemOsk2-49">
          <mxGeometry relative="1" as="geometry">
            <mxPoint x="350" y="210" as="targetPoint" />
            <Array as="points">
              <mxPoint x="420" y="466" />
              <mxPoint x="420" y="420" />
              <mxPoint x="293" y="420" />
            </Array>
          </mxGeometry>
        </mxCell>
        <mxCell id="lueXbY27OIYnLRemOsk2-55" value="N" style="text;html=1;align=center;verticalAlign=middle;resizable=0;points=[];autosize=1;strokeColor=none;" vertex="1" parent="1">
          <mxGeometry x="400" y="440" width="20" height="20" as="geometry" />
        </mxCell>
        <mxCell id="lueXbY27OIYnLRemOsk2-56" value="N" style="text;html=1;align=center;verticalAlign=middle;resizable=0;points=[];autosize=1;strokeColor=none;" vertex="1" parent="1">
          <mxGeometry x="180" y="430" width="20" height="20" as="geometry" />
        </mxCell>
        <mxCell id="lueXbY27OIYnLRemOsk2-57" value="Y" style="text;html=1;align=center;verticalAlign=middle;resizable=0;points=[];autosize=1;strokeColor=none;" vertex="1" parent="1">
          <mxGeometry x="250" y="480" width="20" height="20" as="geometry" />
        </mxCell>
        <mxCell id="lueXbY27OIYnLRemOsk2-58" value="Y" style="text;html=1;align=center;verticalAlign=middle;resizable=0;points=[];autosize=1;strokeColor=none;" vertex="1" parent="1">
          <mxGeometry x="480" y="490" width="20" height="20" as="geometry" />
        </mxCell>
      </root>
    </mxGraphModel>
  </diagram>
</mxfile>
